<svg width="30" height="31" viewBox="0 0 30 31" fill="none" xmlns="http://www.w3.org/2000/svg">
<path d="M15.6251 4.33789C18.4401 4.33789 20.7344 6.50143 20.7344 9.18457V11.6953H26.9044C27.0974 11.6745 27.2914 11.7361 27.4327 11.8672L27.4844 11.9209C27.5974 12.0525 27.6488 12.2259 27.6192 12.3984L27.6182 12.4014L25.42 23.7549L25.421 23.7559C25.1037 25.4121 23.6046 26.6219 21.8409 26.6631H9.41022C7.65128 26.6356 6.14958 25.4353 5.83014 23.7842L3.6319 12.4014L3.63092 12.3984C3.5976 12.2044 3.66661 12.0095 3.81061 11.874C3.87754 11.7812 3.96982 11.7356 4.06158 11.7148C4.15497 11.6938 4.25849 11.6953 4.34283 11.6953H10.5167V9.18457C10.5167 6.50145 12.8101 4.33793 15.6251 4.33789ZM7.25104 23.5693H7.25201C7.43732 24.5572 8.34127 25.2889 9.41315 25.2988H21.837C22.9089 25.2889 23.8138 24.5572 23.9991 23.5693L26.0499 13.0596H5.20026L7.25104 23.5693ZM15.6251 5.70215C13.5847 5.70216 11.9424 7.26788 11.9424 9.18457V11.6953H19.3077V9.18457C19.3077 7.26788 17.6654 5.70215 15.6251 5.70215Z" fill="white" stroke="white" stroke-width="0.254121"/>
<path d="M20.0207 15.4434C20.408 15.4434 20.7336 15.7428 20.7336 16.126V17.791C20.7336 18.1742 20.408 18.4736 20.0207 18.4736C19.6335 18.4735 19.3077 18.1742 19.3078 17.791V16.126C19.3078 15.7428 19.6334 15.4434 20.0207 15.4434Z" fill="white" stroke="white" stroke-width="0.254121"/>
<path d="M11.2294 15.4434C11.6167 15.4434 11.9423 15.7428 11.9423 16.126V17.791C11.9423 18.1742 11.6167 18.4736 11.2294 18.4736C10.8422 18.4735 10.5165 18.1742 10.5165 17.791V16.126C10.5165 15.7428 10.8422 15.4434 11.2294 15.4434Z" fill="white" stroke="white" stroke-width="0.254121"/>
</svg>
