<svg width="36" height="36" viewBox="0 0 36 36" fill="none" xmlns="http://www.w3.org/2000/svg">
<rect width="36" height="36" fill="#ECECEC"/>
<path d="M17.8499 11.4345C19.9618 11.4345 20.2009 11.4345 20.9978 11.4743C21.7549 11.5142 22.1932 11.6337 22.4722 11.7533C22.8308 11.9127 23.1097 12.0721 23.3887 12.351C23.6676 12.6299 23.827 12.869 23.9864 13.2675C24.1059 13.5464 24.2254 13.9449 24.2653 14.7418C24.3051 15.5786 24.3051 15.8177 24.3051 17.8897C24.3051 20.0016 24.3051 20.2407 24.2653 21.0377C24.2254 21.7948 24.1059 22.2331 23.9864 22.512C23.827 22.8706 23.6676 23.1496 23.3887 23.4285C23.1097 23.7074 22.8706 23.8668 22.4722 24.0262C22.1932 24.1458 21.7948 24.2653 20.9978 24.3051C20.161 24.345 19.922 24.345 17.8499 24.345C15.738 24.345 15.4989 24.345 14.702 24.3051C13.9449 24.2653 13.5066 24.1458 13.2276 24.0262C12.869 23.8668 12.5901 23.7074 12.3111 23.4285C12.0322 23.1496 11.8728 22.9105 11.7134 22.512C11.5939 22.2331 11.4743 21.8346 11.4345 21.0377C11.3947 20.2009 11.3947 19.9618 11.3947 17.8897C11.3947 15.7778 11.3947 15.5388 11.4345 14.7418C11.4743 13.9847 11.5939 13.5464 11.7134 13.2675C11.8728 12.9088 12.0322 12.6299 12.3111 12.351C12.5901 12.0721 12.8292 11.9127 13.2276 11.7533C13.5066 11.6337 13.905 11.5142 14.702 11.4743C15.5388 11.4345 15.7779 11.4345 17.8499 11.4345ZM17.8499 10C15.738 10 15.4591 10 14.6223 10.0398C13.7855 10.0797 13.2276 10.1992 12.7096 10.3985C12.1916 10.5977 11.7533 10.8766 11.315 11.315C10.8766 11.7533 10.5977 12.1916 10.3985 12.7096C10.1992 13.2276 10.0797 13.7855 10.0398 14.6223C10 15.4591 10 15.738 10 17.8499C10 19.9618 10 20.2407 10.0398 21.0775C10.0797 21.9143 10.1992 22.4722 10.3985 22.9902C10.5977 23.5082 10.8766 23.9465 11.315 24.3848C11.7533 24.8232 12.1916 25.1021 12.7096 25.3013C13.2276 25.5006 13.7855 25.6201 14.6223 25.66C15.4591 25.6998 15.738 25.6998 17.8499 25.6998C19.9618 25.6998 20.2407 25.6998 21.0775 25.66C21.9143 25.6201 22.4722 25.5006 22.9902 25.3013C23.5082 25.1021 23.9465 24.8232 24.3848 24.3848C24.8232 23.9465 25.1021 23.5082 25.3013 22.9902C25.5006 22.4722 25.6201 21.9143 25.6599 21.0775C25.6998 20.2407 25.6998 19.9618 25.6998 17.8499C25.6998 15.738 25.6998 15.4591 25.6599 14.6223C25.6201 13.7855 25.5006 13.2276 25.3013 12.7096C25.1021 12.1916 24.8232 11.7533 24.3848 11.315C23.9465 10.8766 23.5082 10.5977 22.9902 10.3985C22.4722 10.1992 21.9143 10.0797 21.0775 10.0398C20.2806 10 20.0017 10 17.8499 10Z" fill="#828282"/>
<path d="M17.8499 13.8254C15.6185 13.8254 13.8253 15.6185 13.8253 17.8499C13.8253 20.0814 15.6185 21.8745 17.8499 21.8745C20.0813 21.8745 21.8745 20.0814 21.8745 17.8499C21.8745 15.6185 20.0813 13.8254 17.8499 13.8254ZM17.8499 20.44C16.4154 20.44 15.22 19.2844 15.22 17.8101C15.22 16.3756 16.3756 15.1802 17.8499 15.1802C19.2844 15.1802 20.4798 16.3357 20.4798 17.8101C20.4798 19.2844 19.3243 20.44 17.8499 20.44Z" fill="#828282"/>
<path d="M22.9902 13.666C22.9902 14.184 22.5519 14.6223 22.0339 14.6223C21.5158 14.6223 21.0775 14.184 21.0775 13.666C21.0775 13.1479 21.5158 12.7096 22.0339 12.7096C22.5519 12.7096 22.9902 13.1479 22.9902 13.666Z" fill="#828282"/>
</svg>
