<svg width="30" height="31" viewBox="0 0 30 31" fill="none" xmlns="http://www.w3.org/2000/svg">
<g clip-path="url(#clip0_8586_650)">
<path d="M27.3423 26.0064L20.5562 19.2203C21.8831 17.5822 22.6819 15.4995 22.6819 13.2321C22.6819 7.97569 18.4054 3.69922 13.149 3.69922C7.89263 3.69922 3.61621 7.97569 3.61621 13.2321C3.61621 18.4885 7.89268 22.7649 13.1491 22.7649C15.4165 22.7649 17.4992 21.9662 19.1373 20.6393L25.952 27.454C26.1606 27.6333 26.8017 28.0335 27.3811 27.454C27.8831 26.952 27.5252 26.1893 27.3423 26.0064ZM13.1491 20.758C8.99904 20.758 5.62314 17.3821 5.62314 13.2321C5.62314 9.08205 8.99904 5.70615 13.1491 5.70615C17.2991 5.70615 20.675 9.08205 20.675 13.2321C20.675 17.3821 17.2991 20.758 13.1491 20.758Z" fill="white"/>
</g>
<defs>
<clipPath id="clip0_8586_650">
<rect width="30" height="30" fill="white" transform="translate(0 0.5)"/>
</clipPath>
</defs>
</svg>
