<svg width="36" height="36" viewBox="0 0 36 36" fill="none" xmlns="http://www.w3.org/2000/svg">
<rect width="36" height="36" fill="#ECECEC"/>
<path d="M9.8999 23.6799C11.4667 24.6349 13.302 25.1992 15.2716 25.1992C21.8072 25.1992 25.4779 19.86 25.2541 15.0851C25.9256 14.6076 26.5523 13.9999 26.9999 13.3053C26.3732 13.5658 25.7017 13.7394 24.9855 13.8262C25.7017 13.3921 26.2837 12.741 26.5075 11.9597C25.836 12.3503 25.075 12.6542 24.2693 12.7844C23.6426 12.1333 22.7025 11.6992 21.7177 11.6992C19.4347 11.6992 17.7784 13.7394 18.3156 15.8664C15.4059 15.7362 12.8096 14.3905 11.0638 12.3069C10.1237 13.8262 10.5714 15.823 12.1381 16.8648C11.5562 16.8648 11.019 16.6912 10.5266 16.4307C10.4818 17.9934 11.6457 19.4693 13.3468 19.8166C12.8544 19.9468 12.3172 19.9902 11.78 19.86C12.2277 21.2056 13.5258 22.204 15.0478 22.204C13.6153 23.3761 11.78 23.897 9.8999 23.6799Z" fill="#828282"/>
</svg>
