<svg width="36" height="36" viewBox="0 0 36 36" fill="none" xmlns="http://www.w3.org/2000/svg">
<rect width="36" height="36" fill="#ECECEC"/>
<path fill-rule="evenodd" clip-rule="evenodd" d="M28.6369 12.5915C28.3761 12.4084 27.3702 12.4084 26.4015 12.4084C25.3955 12.4451 24.3896 12.445 24.166 12.5183C23.9425 12.5915 23.4581 13.7262 22.862 14.9342C22.1541 16.252 21.2599 17.5331 20.7383 17.5331C20.0305 17.5331 20.1795 15.3734 20.254 13.7262C20.254 12.6647 20.105 12.3352 19.9187 12.2254C19.5461 11.9692 18.5029 11.7129 18.5029 11.7129C18.5029 11.7129 15.3733 11.4933 14.9262 12.8111C15.5223 12.8843 16.5655 12.7013 16.1557 16.801C16.1184 16.9841 15.6714 18.7045 14.2183 16.3984C13.8457 15.8127 12.4672 12.4084 11.9829 12.3718C10.3808 12.3352 8.77876 12.262 8.2199 12.5549C7.6983 12.8477 8.9278 15.1904 10.977 18.3384C12.6535 20.9374 14.4046 22.9507 17.4597 23.4265C18.0558 23.4997 19.5461 23.5363 20.0305 23.3167C20.3285 23.1703 19.956 20.9374 21.0364 20.7178C21.5208 20.6446 23.3836 23.0605 24.0915 23.3167C24.5386 23.4997 25.47 23.5729 26.4387 23.4997C27.4819 23.4631 28.6742 23.6095 28.7859 22.9141C29.0467 21.3766 25.6191 19.3634 25.5445 18.4117C25.47 17.7162 26.774 16.4716 27.4819 15.5199C28.2271 14.4583 29.1585 13.0307 28.6369 12.5915Z" fill="#828282"/>
</svg>
